<svg id="Capa_1" enable-background="new 0 0 513 513" height="64" viewBox="0 0 513 513" width="64" xmlns="http://www.w3.org/2000/svg"><g><g><g><path d="m415.135 62.332-.048.443c-26.148-26.387-62.391-42.752-102.474-42.752h-112.226c-39.461 0-75.223 15.841-101.272 41.511l.755.504c-52.248 9.589-91.87 55.273-91.87 110.293v232.468c0 39.845 32.3 72.145 72.145 72.145 38.858 0 70.452-30.743 71.997-69.222l.154-12.151c24.042 25.26 64.856 49.309 104.203 49.309 21.064 0 40.932-4.919 58.739-13.452l.57.079c17.858-3.506 26.249 13.373 41.852 13.373 5.675 0 11.139-.811 16.437-2.051l-.36 3.335c13.048 18.612 34.661 30.78 59.117 30.78 39.845 0 72.145-32.3 72.145-72.145v-232.468c.001-54.325-38.597-99.633-89.864-109.999z" fill="#ffc445"/></g><g><path d="m176.339 100.185c0-22.136-17.945-40.081-40.081-40.081h-35.548c-.516.494-1.087.929-1.595 1.43l.755.504c-52.248 9.589-91.87 55.273-91.87 110.293v230.113c0 38.036 28.447 71.322 66.368 74.275 41.458 3.228 76.153-28.628 77.774-68.997l.154-12.151c40.074 49.309 104.203 49.309 104.203 49.309-49.732-29.839-80.161-83.583-80.161-141.58v-203.115z" fill="#F9A826"/></g><g><path d="m392.774 308.605c-17.709 0-32.065-14.356-32.065-32.064v-16.032h64.129v16.032c.001 17.708-14.355 32.064-32.064 32.064z" fill="#F9A826"/></g><g><circle cx="312.613" cy="300.589" fill="#F9A826" r="8.016"/></g><g><circle cx="288.565" cy="284.556" fill="#F9A826" r="8.016"/></g><g><path d="m376.742 492.976c22.136 0 40.081-17.945 40.081-40.081v-83.918c-1.344-4.144-2.601-8.452-3.657-13.074-2.053-8.99-10.267-15.233-19.488-15.233-9.328 0-17.585 6.389-19.53 15.512-5.29 24.807-18.793 46.541-37.486 62.308v34.406c-.001 22.135 17.944 40.08 40.08 40.08z" fill="#F9A826"/></g></g><g fill="#322153"><path d="m418.368 54.843c-27.414-26.492-64.712-42.819-105.755-42.819h-112.226c-39.799 0-77.348 15.217-105.901 42.864-53.965 11.818-94.486 59.983-94.486 117.442v232.468c0 44.192 35.953 80.145 80.146 80.145 41.119 0 75.086-31.131 79.615-71.058 28.952 24.956 66.214 38.993 104.755 38.993 22.76 0 45.059-6.535 64.145-18.591v18.607c0 26.512 21.569 48.081 48.081 48.081 15.221 0 28.804-7.118 37.62-18.191 6.036 1.426 12.237 2.159 18.493 2.159 44.192 0 80.145-35.953 80.145-80.145v-232.468c0-56.437-39.698-105.572-94.632-117.487zm78.632 117.487v152.323h-64.145c-4.418 0-8 3.582-8 8s3.582 8 8 8h16.048v16.56c-2.566-.315-5.242-.495-8.032-.495-4.418 0-8 3.582-8 8s3.582 8 8 8c2.827 0 5.505.248 8.032.667v28.642c0 1.985-1.492 2.699-2.133 2.914-.895.299-2.171.378-3.169-.946-10.706-14.204-18.321-30.983-22.636-49.873-2.306-10.097-10.312-17.946-20.19-20.536v-17.785c18.271-3.717 32.064-19.908 32.064-39.261v-16.032c0-.001 0-.002 0-.004 0-.001 0-.002 0-.004 0-22.301-16.688-41.205-38.816-43.971l-4.234-.529c-6.956-.87-12.908-4.686-16.699-10.087 10.609-9.187 25.826-12.985 41.105-10.146 15.271 2.837 28.104 11.841 34.708 24.217v80.605c0 4.418 3.582 8 8 8s8-3.582 8-8v-136.275c0-31.745-9.769-61.249-26.451-85.674 35.038 17.147 58.548 53.251 58.548 93.69zm-104.226 128.274c-13.27 0-24.065-10.795-24.065-24.064v-8.032h48.129v8.032c.001 13.269-10.795 24.064-24.064 24.064zm-232.483 91.764v-268.134c0-8.849 7.199-16.048 16.048-16.048 4.418 0 8-3.582 8-8s-3.582-8-8-8c-17.671 0-32.048 14.377-32.048 32.048v280.564c0 35.37-28.775 64.145-64.146 64.145-35.37 0-64.145-28.776-64.145-64.145v-232.468c0-57.47 46.756-104.226 104.226-104.226h32.064c4.418 0 8-3.582 8-8s-3.582-8-8-8h-29.309c22.594-15.648 49.377-24.08 77.406-24.08h112.226c69.282 0 126.656 51.963 135.194 118.962-8.421-4.108-21.079-9.484-32.771-11.287-4.367-.674-8.452 2.321-9.126 6.687-.673 4.367 2.321 8.453 6.688 9.126 15.01 2.315 33.253 12.375 36.306 14.104v29.409c-8.755-7.469-19.708-12.746-31.786-14.99-17.345-3.223-34.777.205-48.408 9.177v-8.867c0-4.418-3.582-8-8-8s-8 3.582-8 8v11.774c0 20.164 15.088 37.255 35.095 39.755l4.233.529c11.394 1.424 20.526 9.546 23.644 20.102h-54.972c-4.418 0-8 3.582-8 8v16.032c0 19.353 13.793 35.543 32.065 39.261v18.334c-9.164 3.062-16.387 10.696-18.451 20.377-4.899 22.973-17.65 43.867-35.904 58.833-18.508 15.175-41.914 23.533-65.903 23.533-39.278.004-77.085-16.186-104.226-44.507zm217.005 92.603c-17.947.306-32.635-14.766-32.635-32.715v-30.063c9.605-8.629 17.718-18.749 24.081-29.864v36.243c0 4.261 3.216 7.982 7.468 8.257 4.659.301 8.532-3.389 8.532-7.983v-71.029c0-4.928 3.899-9.105 8.827-9.148h.108c5.58 0 10.496 3.791 11.689 9.015.01.043.02.087.03.13 2.185 9.528 3.427 19.248 3.427 29.024v66.057c0 17.504-14.092 31.779-31.527 32.076zm55.559-16.028c-3.536 0-7.046-.296-10.503-.865 1.594-4.776 2.471-9.878 2.471-15.183v-47.929c1.894 2.968 3.891 5.858 6 8.658 4.945 6.562 13.199 9.108 21.024 6.489 7.931-2.654 13.056-9.753 13.056-18.086v-23.117c6.452 3.498 10.105 7.202 10.239 7.341 1.572 1.66 3.688 2.499 5.811 2.499 1.961 0 3.927-.717 5.47-2.163 3.223-3.022 3.386-8.085.365-11.308-.476-.508-8.293-8.676-21.885-14.005v-20.62h32.097v64.145c0 35.369-28.775 64.144-64.145 64.144z"/><path d="m276.162 207.61c3.159 3.089 8.224 3.034 11.313-.125 3.09-3.159 3.034-8.224-.125-11.313-13.944-13.64-34.324-19.543-54.516-15.792-20.192 3.752-37.092 16.582-45.206 34.319-1.838 4.018-.071 8.765 3.947 10.603 1.079.494 2.209.727 3.323.727 3.034 0 5.936-1.735 7.28-4.674 5.949-13.006 18.502-22.443 33.579-25.244 15.076-2.801 30.181 1.497 40.405 11.499z"/><path d="m344.661 332.653c0-4.418-3.582-8-8-8h-96.193c-4.418 0-8 3.582-8 8s3.582 8 8 8h96.193c4.419 0 8-3.582 8-8z"/><path d="m336.645 364.718c0-4.418-3.582-8-8-8-38.261 0-61.177 25.687-62.133 26.78-2.902 3.316-2.565 8.344.74 11.258 1.518 1.338 3.402 1.994 5.281 1.994 2.213 0 4.418-.912 6-2.694.19-.213 19.311-21.338 50.112-21.338 4.418 0 8-3.582 8-8z"/><path d="m202.734 166.971c1.237 0 2.493-.288 3.667-.895.231-.12 23.329-11.975 42.162-14.543 4.378-.597 7.443-4.63 6.846-9.007-.597-4.378-4.632-7.442-9.008-6.846-21.604 2.946-46.313 15.647-47.354 16.187-3.922 2.031-5.455 6.856-3.425 10.779 1.421 2.748 4.216 4.325 7.112 4.325z"/></g></g></svg>