<svg id="Capa_1" enable-background="new 0 0 512.964 512.964" height="64" viewBox="0 0 512.964 512.964" width="64" xmlns="http://www.w3.org/2000/svg"><g><g><g><path d="m424.801 131.817v-107.735c0-13.21-15.081-20.75-25.649-12.825l-102.594 76.946h-109.541c-12.14 0-23.952-3.938-33.663-11.221l-87.634-65.725c-10.568-7.926-25.649-.385-25.649 12.825v256.486c0 113.592 100.478 224.425 224.425 224.425 106.24 0 192.364-86.125 192.364-192.364v-96.183c.001-32.471-12.163-62.035-32.059-84.629z" fill="#ffc445"/></g><g><ellipse cx="293.189" cy="384.736" fill="#F9A826" rx="59.511" ry="48.091"/></g><g><g><path d="m120.224 296.569v-160.304l-80.152-64.121v208.424c0 122.851 98.725 222.588 221.159 224.343-82.624-33.115-141.007-113.886-141.007-208.342z" fill="#F9A826"/></g></g><g><path d="m296.558 360.205c-17.707 0-32.061-14.354-32.061-32.061v-8.015h64.122v8.015c0 17.707-14.354 32.061-32.061 32.061z" fill="#F9A826"/></g><g><g><path d="m40.072 24.052v192.364l60.862-49.797c15.61-12.772 19.296-35.154 8.607-52.257l-63.459-102.722c-3.559 2.843-6.01 7.14-6.01 12.412z" fill="#F9A826"/></g></g><g><path d="m296.558 372.713s-13.359 20.038-48.091 20.038c-20.675 0-38.251-5.447-45.047-13.076 9.735 30.614 42.314 53.152 81.116 53.152 33.548 0 66.125-19.036 78.816-46.087l-1.372-.288c-45.885 14.064-65.422-13.739-65.422-13.739z" fill="#fff"/></g><g fill="#F9A826"><path d="m318.41 408.364c-1.918-2.196-4.881-3.191-7.725-2.549-8.062 1.819-16.981 2.474-26.15 1.964-6.079-.338-12.005-1.033-17.716-2.116-2.799-.531-5.668.439-7.542 2.585l-12.063 13.809-1.539-22.706c-5.141-2.2-9.972-4.846-14.419-7.983-12.825-2.064-23.043-6.312-27.837-11.693 9.735 30.614 42.314 53.152 81.116 53.152 15.908 0 31.594-4.286 45.049-11.672z"/><path d="m361.979 386.451c-8.733 2.677-16.5 3.823-23.371 3.947-1.854 2.275-4.044 4.324-6.507 6.155l-1.634 24.104c14.515-8.175 26.344-19.977 32.884-33.918z"/></g></g><g fill="#322153"><path d="m88.178 344.66c0 4.418 3.582 8 8 8h128.243c4.418 0 8-3.582 8-8s-3.582-8-8-8h-128.243c-4.418 0-8 3.582-8 8z"/><path d="m472.892 336.66h-96.182c-4.418 0-8 3.582-8 8s3.582 8 8 8h67.776c-2.615 11.777-6.385 23.228-11.222 34.196-15.255-10.674-27.623-16.889-28.442-17.297-3.953-1.969-8.753-.359-10.723 3.594s-.362 8.755 3.589 10.728c.196.098 13.045 6.57 28.383 17.516-10.667 19.373-24.815 36.858-41.896 51.449-33.307 28.45-75.809 44.118-119.677 44.118-69.816 0-134.786-33.413-175.5-89.781 44.52-18.007 78.645-22.441 79.286-22.521 4.386-.535 7.507-4.524 6.972-8.91s-4.52-7.506-8.91-6.972c-2.332.285-57.858 7.366-122.025 41.628-3.897 2.081-5.37 6.927-3.289 10.825 1.44 2.698 4.206 4.234 7.064 4.233 1.271 0 2.562-.304 3.761-.945 7.493-4.001 14.883-7.616 22.085-10.883 43.566 62.298 114.38 99.326 190.557 99.326 47.675 0 93.868-17.03 130.068-47.952 17.925-15.311 32.886-33.555 44.331-53.752 4.177 3.468 8.336 7.202 12.294 11.18 1.563 1.572 3.617 2.358 5.671 2.358 2.041 0 4.082-.775 5.642-2.328 3.132-3.116 3.146-8.182.029-11.314-5.224-5.251-10.718-10.084-16.157-14.463 6.491-14.01 11.365-28.783 14.465-44.031h12.051c4.418 0 8-3.582 8-8s-3.583-8.002-8.001-8.002z"/><path d="m60.742 382.736c1.125 0 2.269-.238 3.356-.742 4.01-1.856 5.755-6.612 3.898-10.621-13.221-28.552-19.925-59.113-19.925-90.834v-60.331l57.929-47.396c18.674-15.278 23.113-42.229 10.325-62.689l-58.744-93.988c1.177.225 2.314.725 3.339 1.493l87.633 65.725c11.023 8.269 24.684 12.821 38.464 12.821h141.602c66.302 0 120.243 53.941 120.243 120.243v96.183c0 4.418 3.582 7.998 8 7.998s8-3.584 8-8.002v-96.179c0-33.373-12.069-63.975-32.061-87.69v-104.674c0-9.161-5.09-17.396-13.284-21.494-8.193-4.096-17.835-3.228-25.165 2.269l-100.46 75.346h-106.875c-10.341 0-20.592-3.417-28.864-9.621l-87.633-65.725c-7.329-5.497-16.972-6.365-25.165-2.269-8.194 4.097-13.284 12.332-13.284 21.493v256.486c0 34.06 7.202 66.883 21.406 97.558 1.353 2.921 4.245 4.64 7.265 4.64zm343.21-365.108c2.486-1.864 5.629-2.148 8.41-.758 2.779 1.39 4.439 4.075 4.439 7.183v88.599c-23.783-20.242-54.578-32.478-88.182-32.478h-8.061zm-355.88 13.479 54.685 87.496c1.302 2.083 2.332 4.266 3.106 6.507l-30.759-12.303c-4.102-1.641-8.758.354-10.399 4.457s.354 8.758 4.457 10.399l37.642 15.057c-.763 3.362-2.065 6.605-3.881 9.591h-30.79c-4.418 0-8 3.582-8 8s3.582 8 8 8h14.102l-38.163 31.225z"/><path d="m161.611 280.415c2.437 0 4.843-1.109 6.414-3.211 7.485-10.013 20.974-17.494 36.083-20.013 15.108-2.519 30.294.184 40.623 7.229 3.651 2.489 8.627 1.549 11.117-2.102 2.489-3.65 1.548-8.627-2.102-11.117-13.856-9.45-32.907-13.021-52.269-9.792-19.362 3.227-36.227 12.782-46.269 26.215-2.645 3.539-1.921 8.553 1.618 11.198 1.439 1.074 3.119 1.593 4.785 1.593z"/><path d="m407.995 275.904c1.533 2.36 4.099 3.645 6.717 3.645 1.493 0 3.003-.417 4.349-1.291 3.706-2.406 4.759-7.36 2.354-11.066-8.818-13.582-24.068-23.224-41.841-26.455-17.773-3.232-35.442.427-48.476 10.034-3.556 2.622-4.314 7.63-1.692 11.187s7.63 4.314 11.187 1.692c9.361-6.9 22.864-9.581 36.119-7.171 13.256 2.409 24.95 9.671 31.283 19.425z"/><path d="m284.535 440.827c36.146 0 71.032-20.261 85.432-49.426 4.175-2.267 6.667-4.122 6.884-4.285 3.527-2.66 4.231-7.677 1.57-11.204-2.66-3.529-7.677-4.23-11.204-1.571-.087.066-9.059 6.639-21.431 9.056-14.933 2.918-28.385-1.357-40.055-12.686-.76-.738-1.173-1.765-1.173-2.824 18.27-3.718 32.061-19.906 32.061-39.257v-8.015c0-.003 0-.006 0-.009v-31.777c0-4.261-3.216-7.982-7.468-8.257-4.659-.301-8.532 3.389-8.532 7.983v24.061h-48.122v-23.786c0-4.261-3.216-7.982-7.468-8.257-4.659-.301-8.532 3.389-8.532 7.983v32.061 8.015c0 19.351 13.792 35.54 32.061 39.257v.368c0 1.068-.421 2.093-1.187 2.837-4.846 4.706-16.956 13.66-38.904 13.66-19.57 0-34.469-5.23-39.073-10.397-1.485-1.666-3.534-2.796-5.765-2.745-6.008.137-9.387 5.601-7.833 10.491 10.995 34.575 47.486 58.724 88.739 58.724zm-12.038-112.198v-.015h48.122v.015c0 13.267-10.794 24.061-24.061 24.061s-24.061-10.794-24.061-24.061zm-24.03 72.122c24.511 0 39.708-9.138 47.703-16.05.13.006.257.02.388.02.24 0 .476-.015.711-.036 13.603 12.016 27.662 15.598 39.574 15.598 2.712 0 5.296-.201 7.755-.514-14.633 15.157-37.319 25.058-60.062 25.058-25.089 0-47.968-10.427-61.958-26.958 7.73 1.867 16.535 2.882 25.889 2.882z"/></g></g></svg>